<?xml version="1.0" encoding="UTF-8"?>
<!DOCTYPE svg PUBLIC "-//W3C//DTD SVG 1.1//EN" "http://www.w3.org/Graphics/SVG/1.1/DTD/svg11.dtd">
<svg width="160mm" height="90mm" viewBox="0 0 16000 9000" version="1.1" xmlns="http://www.w3.org/2000/svg" xmlns:xlink="http://www.w3.org/1999/xlink" stroke-width="28.222" stroke-linejoin="round" xml:space="preserve">
 <path fill="rgb(255,255,255)" stroke="none" d="M 8000,8999 L 0,8999 0,0 15999,0 15999,8999 8000,8999 Z"/>
 <path fill="none" stroke="rgb(179,179,179)" stroke-linejoin="round" d="M 8611,7056 L 3505,7056 3505,2351 13718,2351 13718,7056 8611,7056 Z"/>
 <path fill="none" stroke="rgb(179,179,179)" stroke-linejoin="round" d="M 13718,7055 L 3505,7055"/>
 <path fill="none" stroke="rgb(179,179,179)" stroke-linejoin="round" d="M 13718,6382 L 3505,6382"/>
 <path fill="none" stroke="rgb(179,179,179)" stroke-linejoin="round" d="M 13718,5710 L 3505,5710"/>
 <path fill="none" stroke="rgb(179,179,179)" stroke-linejoin="round" d="M 13718,5038 L 3505,5038"/>
 <path fill="none" stroke="rgb(179,179,179)" stroke-linejoin="round" d="M 13718,4366 L 3505,4366"/>
 <path fill="none" stroke="rgb(179,179,179)" stroke-linejoin="round" d="M 13718,3694 L 3505,3694"/>
 <path fill="none" stroke="rgb(179,179,179)" stroke-linejoin="round" d="M 13718,3022 L 3505,3022"/>
 <path fill="none" stroke="rgb(179,179,179)" stroke-linejoin="round" d="M 13718,2350 L 3505,2350"/>
 <path fill="none" stroke="rgb(179,179,179)" stroke-linejoin="round" d="M 3505,7205 L 3505,7055"/>
 <path fill="none" stroke="rgb(179,179,179)" stroke-linejoin="round" d="M 3505,7205 L 3505,7055"/>
 <path fill="none" stroke="rgb(179,179,179)" stroke-linejoin="round" d="M 3626,7205 L 3626,7055"/>
 <path fill="none" stroke="rgb(179,179,179)" stroke-linejoin="round" d="M 3626,7205 L 3626,7055"/>
 <path fill="none" stroke="rgb(179,179,179)" stroke-linejoin="round" d="M 3748,7205 L 3748,7055"/>
 <path fill="none" stroke="rgb(179,179,179)" stroke-linejoin="round" d="M 3748,7205 L 3748,7055"/>
 <path fill="none" stroke="rgb(179,179,179)" stroke-linejoin="round" d="M 3869,7205 L 3869,7055"/>
 <path fill="none" stroke="rgb(179,179,179)" stroke-linejoin="round" d="M 3869,7205 L 3869,7055"/>
 <path fill="none" stroke="rgb(179,179,179)" stroke-linejoin="round" d="M 3991,7205 L 3991,7055"/>
 <path fill="none" stroke="rgb(179,179,179)" stroke-linejoin="round" d="M 3991,7205 L 3991,7055"/>
 <path fill="none" stroke="rgb(179,179,179)" stroke-linejoin="round" d="M 4112,7205 L 4112,7055"/>
 <path fill="none" stroke="rgb(179,179,179)" stroke-linejoin="round" d="M 4112,7205 L 4112,7055"/>
 <path fill="none" stroke="rgb(179,179,179)" stroke-linejoin="round" d="M 4234,7205 L 4234,7055"/>
 <path fill="none" stroke="rgb(179,179,179)" stroke-linejoin="round" d="M 4234,7205 L 4234,7055"/>
 <path fill="none" stroke="rgb(179,179,179)" stroke-linejoin="round" d="M 4356,7205 L 4356,7055"/>
 <path fill="none" stroke="rgb(179,179,179)" stroke-linejoin="round" d="M 4356,7205 L 4356,7055"/>
 <path fill="none" stroke="rgb(179,179,179)" stroke-linejoin="round" d="M 4477,7205 L 4477,7055"/>
 <path fill="none" stroke="rgb(179,179,179)" stroke-linejoin="round" d="M 4477,7205 L 4477,7055"/>
 <path fill="none" stroke="rgb(179,179,179)" stroke-linejoin="round" d="M 4599,7205 L 4599,7055"/>
 <path fill="none" stroke="rgb(179,179,179)" stroke-linejoin="round" d="M 4599,7205 L 4599,7055"/>
 <path fill="none" stroke="rgb(179,179,179)" stroke-linejoin="round" d="M 4720,7205 L 4720,7055"/>
 <path fill="none" stroke="rgb(179,179,179)" stroke-linejoin="round" d="M 4720,7205 L 4720,7055"/>
 <path fill="none" stroke="rgb(179,179,179)" stroke-linejoin="round" d="M 4842,7205 L 4842,7055"/>
 <path fill="none" stroke="rgb(179,179,179)" stroke-linejoin="round" d="M 4842,7205 L 4842,7055"/>
 <path fill="none" stroke="rgb(179,179,179)" stroke-linejoin="round" d="M 4964,7205 L 4964,7055"/>
 <path fill="none" stroke="rgb(179,179,179)" stroke-linejoin="round" d="M 4964,7205 L 4964,7055"/>
 <path fill="none" stroke="rgb(179,179,179)" stroke-linejoin="round" d="M 5085,7205 L 5085,7055"/>
 <path fill="none" stroke="rgb(179,179,179)" stroke-linejoin="round" d="M 5085,7205 L 5085,7055"/>
 <path fill="none" stroke="rgb(179,179,179)" stroke-linejoin="round" d="M 5207,7205 L 5207,7055"/>
 <path fill="none" stroke="rgb(179,179,179)" stroke-linejoin="round" d="M 5207,7205 L 5207,7055"/>
 <path fill="none" stroke="rgb(179,179,179)" stroke-linejoin="round" d="M 5328,7205 L 5328,7055"/>
 <path fill="none" stroke="rgb(179,179,179)" stroke-linejoin="round" d="M 5328,7205 L 5328,7055"/>
 <path fill="none" stroke="rgb(179,179,179)" stroke-linejoin="round" d="M 5450,7205 L 5450,7055"/>
 <path fill="none" stroke="rgb(179,179,179)" stroke-linejoin="round" d="M 5450,7205 L 5450,7055"/>
 <path fill="none" stroke="rgb(179,179,179)" stroke-linejoin="round" d="M 5572,7205 L 5572,7055"/>
 <path fill="none" stroke="rgb(179,179,179)" stroke-linejoin="round" d="M 5572,7205 L 5572,7055"/>
 <path fill="none" stroke="rgb(179,179,179)" stroke-linejoin="round" d="M 5693,7205 L 5693,7055"/>
 <path fill="none" stroke="rgb(179,179,179)" stroke-linejoin="round" d="M 5693,7205 L 5693,7055"/>
 <path fill="none" stroke="rgb(179,179,179)" stroke-linejoin="round" d="M 5815,7205 L 5815,7055"/>
 <path fill="none" stroke="rgb(179,179,179)" stroke-linejoin="round" d="M 5815,7205 L 5815,7055"/>
 <path fill="none" stroke="rgb(179,179,179)" stroke-linejoin="round" d="M 5936,7205 L 5936,7055"/>
 <path fill="none" stroke="rgb(179,179,179)" stroke-linejoin="round" d="M 5936,7205 L 5936,7055"/>
 <path fill="none" stroke="rgb(179,179,179)" stroke-linejoin="round" d="M 6058,7205 L 6058,7055"/>
 <path fill="none" stroke="rgb(179,179,179)" stroke-linejoin="round" d="M 6058,7205 L 6058,7055"/>
 <path fill="none" stroke="rgb(179,179,179)" stroke-linejoin="round" d="M 6180,7205 L 6180,7055"/>
 <path fill="none" stroke="rgb(179,179,179)" stroke-linejoin="round" d="M 6180,7205 L 6180,7055"/>
 <path fill="none" stroke="rgb(179,179,179)" stroke-linejoin="round" d="M 6301,7205 L 6301,7055"/>
 <path fill="none" stroke="rgb(179,179,179)" stroke-linejoin="round" d="M 6301,7205 L 6301,7055"/>
 <path fill="none" stroke="rgb(179,179,179)" stroke-linejoin="round" d="M 6423,7205 L 6423,7055"/>
 <path fill="none" stroke="rgb(179,179,179)" stroke-linejoin="round" d="M 6423,7205 L 6423,7055"/>
 <path fill="none" stroke="rgb(179,179,179)" stroke-linejoin="round" d="M 6544,7205 L 6544,7055"/>
 <path fill="none" stroke="rgb(179,179,179)" stroke-linejoin="round" d="M 6544,7205 L 6544,7055"/>
 <path fill="none" stroke="rgb(179,179,179)" stroke-linejoin="round" d="M 6666,7205 L 6666,7055"/>
 <path fill="none" stroke="rgb(179,179,179)" stroke-linejoin="round" d="M 6666,7205 L 6666,7055"/>
 <path fill="none" stroke="rgb(179,179,179)" stroke-linejoin="round" d="M 6788,7205 L 6788,7055"/>
 <path fill="none" stroke="rgb(179,179,179)" stroke-linejoin="round" d="M 6788,7205 L 6788,7055"/>
 <path fill="none" stroke="rgb(179,179,179)" stroke-linejoin="round" d="M 6909,7205 L 6909,7055"/>
 <path fill="none" stroke="rgb(179,179,179)" stroke-linejoin="round" d="M 6909,7205 L 6909,7055"/>
 <path fill="none" stroke="rgb(179,179,179)" stroke-linejoin="round" d="M 7031,7205 L 7031,7055"/>
 <path fill="none" stroke="rgb(179,179,179)" stroke-linejoin="round" d="M 7031,7205 L 7031,7055"/>
 <path fill="none" stroke="rgb(179,179,179)" stroke-linejoin="round" d="M 7152,7205 L 7152,7055"/>
 <path fill="none" stroke="rgb(179,179,179)" stroke-linejoin="round" d="M 7152,7205 L 7152,7055"/>
 <path fill="none" stroke="rgb(179,179,179)" stroke-linejoin="round" d="M 7274,7205 L 7274,7055"/>
 <path fill="none" stroke="rgb(179,179,179)" stroke-linejoin="round" d="M 7274,7205 L 7274,7055"/>
 <path fill="none" stroke="rgb(179,179,179)" stroke-linejoin="round" d="M 7396,7205 L 7396,7055"/>
 <path fill="none" stroke="rgb(179,179,179)" stroke-linejoin="round" d="M 7396,7205 L 7396,7055"/>
 <path fill="none" stroke="rgb(179,179,179)" stroke-linejoin="round" d="M 7517,7205 L 7517,7055"/>
 <path fill="none" stroke="rgb(179,179,179)" stroke-linejoin="round" d="M 7517,7205 L 7517,7055"/>
 <path fill="none" stroke="rgb(179,179,179)" stroke-linejoin="round" d="M 7639,7205 L 7639,7055"/>
 <path fill="none" stroke="rgb(179,179,179)" stroke-linejoin="round" d="M 7639,7205 L 7639,7055"/>
 <path fill="none" stroke="rgb(179,179,179)" stroke-linejoin="round" d="M 7760,7205 L 7760,7055"/>
 <path fill="none" stroke="rgb(179,179,179)" stroke-linejoin="round" d="M 7760,7205 L 7760,7055"/>
 <path fill="none" stroke="rgb(179,179,179)" stroke-linejoin="round" d="M 7882,7205 L 7882,7055"/>
 <path fill="none" stroke="rgb(179,179,179)" stroke-linejoin="round" d="M 7882,7205 L 7882,7055"/>
 <path fill="none" stroke="rgb(179,179,179)" stroke-linejoin="round" d="M 8003,7205 L 8003,7055"/>
 <path fill="none" stroke="rgb(179,179,179)" stroke-linejoin="round" d="M 8003,7205 L 8003,7055"/>
 <path fill="none" stroke="rgb(179,179,179)" stroke-linejoin="round" d="M 8124,7205 L 8124,7055"/>
 <path fill="none" stroke="rgb(179,179,179)" stroke-linejoin="round" d="M 8124,7205 L 8124,7055"/>
 <path fill="none" stroke="rgb(179,179,179)" stroke-linejoin="round" d="M 8246,7205 L 8246,7055"/>
 <path fill="none" stroke="rgb(179,179,179)" stroke-linejoin="round" d="M 8246,7205 L 8246,7055"/>
 <path fill="none" stroke="rgb(179,179,179)" stroke-linejoin="round" d="M 8367,7205 L 8367,7055"/>
 <path fill="none" stroke="rgb(179,179,179)" stroke-linejoin="round" d="M 8367,7205 L 8367,7055"/>
 <path fill="none" stroke="rgb(179,179,179)" stroke-linejoin="round" d="M 8489,7205 L 8489,7055"/>
 <path fill="none" stroke="rgb(179,179,179)" stroke-linejoin="round" d="M 8489,7205 L 8489,7055"/>
 <path fill="none" stroke="rgb(179,179,179)" stroke-linejoin="round" d="M 8611,7205 L 8611,7055"/>
 <path fill="none" stroke="rgb(179,179,179)" stroke-linejoin="round" d="M 8611,7205 L 8611,7055"/>
 <path fill="none" stroke="rgb(179,179,179)" stroke-linejoin="round" d="M 8732,7205 L 8732,7055"/>
 <path fill="none" stroke="rgb(179,179,179)" stroke-linejoin="round" d="M 8732,7205 L 8732,7055"/>
 <path fill="none" stroke="rgb(179,179,179)" stroke-linejoin="round" d="M 8854,7205 L 8854,7055"/>
 <path fill="none" stroke="rgb(179,179,179)" stroke-linejoin="round" d="M 8854,7205 L 8854,7055"/>
 <path fill="none" stroke="rgb(179,179,179)" stroke-linejoin="round" d="M 8975,7205 L 8975,7055"/>
 <path fill="none" stroke="rgb(179,179,179)" stroke-linejoin="round" d="M 8975,7205 L 8975,7055"/>
 <path fill="none" stroke="rgb(179,179,179)" stroke-linejoin="round" d="M 9097,7205 L 9097,7055"/>
 <path fill="none" stroke="rgb(179,179,179)" stroke-linejoin="round" d="M 9097,7205 L 9097,7055"/>
 <path fill="none" stroke="rgb(179,179,179)" stroke-linejoin="round" d="M 9218,7205 L 9218,7055"/>
 <path fill="none" stroke="rgb(179,179,179)" stroke-linejoin="round" d="M 9218,7205 L 9218,7055"/>
 <path fill="none" stroke="rgb(179,179,179)" stroke-linejoin="round" d="M 9340,7205 L 9340,7055"/>
 <path fill="none" stroke="rgb(179,179,179)" stroke-linejoin="round" d="M 9340,7205 L 9340,7055"/>
 <path fill="none" stroke="rgb(179,179,179)" stroke-linejoin="round" d="M 9462,7205 L 9462,7055"/>
 <path fill="none" stroke="rgb(179,179,179)" stroke-linejoin="round" d="M 9462,7205 L 9462,7055"/>
 <path fill="none" stroke="rgb(179,179,179)" stroke-linejoin="round" d="M 9583,7205 L 9583,7055"/>
 <path fill="none" stroke="rgb(179,179,179)" stroke-linejoin="round" d="M 9583,7205 L 9583,7055"/>
 <path fill="none" stroke="rgb(179,179,179)" stroke-linejoin="round" d="M 9705,7205 L 9705,7055"/>
 <path fill="none" stroke="rgb(179,179,179)" stroke-linejoin="round" d="M 9705,7205 L 9705,7055"/>
 <path fill="none" stroke="rgb(179,179,179)" stroke-linejoin="round" d="M 9826,7205 L 9826,7055"/>
 <path fill="none" stroke="rgb(179,179,179)" stroke-linejoin="round" d="M 9826,7205 L 9826,7055"/>
 <path fill="none" stroke="rgb(179,179,179)" stroke-linejoin="round" d="M 9948,7205 L 9948,7055"/>
 <path fill="none" stroke="rgb(179,179,179)" stroke-linejoin="round" d="M 9948,7205 L 9948,7055"/>
 <path fill="none" stroke="rgb(179,179,179)" stroke-linejoin="round" d="M 10070,7205 L 10070,7055"/>
 <path fill="none" stroke="rgb(179,179,179)" stroke-linejoin="round" d="M 10070,7205 L 10070,7055"/>
 <path fill="none" stroke="rgb(179,179,179)" stroke-linejoin="round" d="M 10191,7205 L 10191,7055"/>
 <path fill="none" stroke="rgb(179,179,179)" stroke-linejoin="round" d="M 10191,7205 L 10191,7055"/>
 <path fill="none" stroke="rgb(179,179,179)" stroke-linejoin="round" d="M 10313,7205 L 10313,7055"/>
 <path fill="none" stroke="rgb(179,179,179)" stroke-linejoin="round" d="M 10313,7205 L 10313,7055"/>
 <path fill="none" stroke="rgb(179,179,179)" stroke-linejoin="round" d="M 10434,7205 L 10434,7055"/>
 <path fill="none" stroke="rgb(179,179,179)" stroke-linejoin="round" d="M 10434,7205 L 10434,7055"/>
 <path fill="none" stroke="rgb(179,179,179)" stroke-linejoin="round" d="M 10556,7205 L 10556,7055"/>
 <path fill="none" stroke="rgb(179,179,179)" stroke-linejoin="round" d="M 10556,7205 L 10556,7055"/>
 <path fill="none" stroke="rgb(179,179,179)" stroke-linejoin="round" d="M 10678,7205 L 10678,7055"/>
 <path fill="none" stroke="rgb(179,179,179)" stroke-linejoin="round" d="M 10678,7205 L 10678,7055"/>
 <path fill="none" stroke="rgb(179,179,179)" stroke-linejoin="round" d="M 10799,7205 L 10799,7055"/>
 <path fill="none" stroke="rgb(179,179,179)" stroke-linejoin="round" d="M 10799,7205 L 10799,7055"/>
 <path fill="none" stroke="rgb(179,179,179)" stroke-linejoin="round" d="M 10921,7205 L 10921,7055"/>
 <path fill="none" stroke="rgb(179,179,179)" stroke-linejoin="round" d="M 10921,7205 L 10921,7055"/>
 <path fill="none" stroke="rgb(179,179,179)" stroke-linejoin="round" d="M 11042,7205 L 11042,7055"/>
 <path fill="none" stroke="rgb(179,179,179)" stroke-linejoin="round" d="M 11042,7205 L 11042,7055"/>
 <path fill="none" stroke="rgb(179,179,179)" stroke-linejoin="round" d="M 11164,7205 L 11164,7055"/>
 <path fill="none" stroke="rgb(179,179,179)" stroke-linejoin="round" d="M 11164,7205 L 11164,7055"/>
 <path fill="none" stroke="rgb(179,179,179)" stroke-linejoin="round" d="M 11286,7205 L 11286,7055"/>
 <path fill="none" stroke="rgb(179,179,179)" stroke-linejoin="round" d="M 11286,7205 L 11286,7055"/>
 <path fill="none" stroke="rgb(179,179,179)" stroke-linejoin="round" d="M 11407,7205 L 11407,7055"/>
 <path fill="none" stroke="rgb(179,179,179)" stroke-linejoin="round" d="M 11407,7205 L 11407,7055"/>
 <path fill="none" stroke="rgb(179,179,179)" stroke-linejoin="round" d="M 11529,7205 L 11529,7055"/>
 <path fill="none" stroke="rgb(179,179,179)" stroke-linejoin="round" d="M 11529,7205 L 11529,7055"/>
 <path fill="none" stroke="rgb(179,179,179)" stroke-linejoin="round" d="M 11650,7205 L 11650,7055"/>
 <path fill="none" stroke="rgb(179,179,179)" stroke-linejoin="round" d="M 11650,7205 L 11650,7055"/>
 <path fill="none" stroke="rgb(179,179,179)" stroke-linejoin="round" d="M 11772,7205 L 11772,7055"/>
 <path fill="none" stroke="rgb(179,179,179)" stroke-linejoin="round" d="M 11772,7205 L 11772,7055"/>
 <path fill="none" stroke="rgb(179,179,179)" stroke-linejoin="round" d="M 11894,7205 L 11894,7055"/>
 <path fill="none" stroke="rgb(179,179,179)" stroke-linejoin="round" d="M 11894,7205 L 11894,7055"/>
 <path fill="none" stroke="rgb(179,179,179)" stroke-linejoin="round" d="M 12015,7205 L 12015,7055"/>
 <path fill="none" stroke="rgb(179,179,179)" stroke-linejoin="round" d="M 12015,7205 L 12015,7055"/>
 <path fill="none" stroke="rgb(179,179,179)" stroke-linejoin="round" d="M 12137,7205 L 12137,7055"/>
 <path fill="none" stroke="rgb(179,179,179)" stroke-linejoin="round" d="M 12137,7205 L 12137,7055"/>
 <path fill="none" stroke="rgb(179,179,179)" stroke-linejoin="round" d="M 12258,7205 L 12258,7055"/>
 <path fill="none" stroke="rgb(179,179,179)" stroke-linejoin="round" d="M 12258,7205 L 12258,7055"/>
 <path fill="none" stroke="rgb(179,179,179)" stroke-linejoin="round" d="M 12380,7205 L 12380,7055"/>
 <path fill="none" stroke="rgb(179,179,179)" stroke-linejoin="round" d="M 12380,7205 L 12380,7055"/>
 <path fill="none" stroke="rgb(179,179,179)" stroke-linejoin="round" d="M 12502,7205 L 12502,7055"/>
 <path fill="none" stroke="rgb(179,179,179)" stroke-linejoin="round" d="M 12502,7205 L 12502,7055"/>
 <path fill="none" stroke="rgb(179,179,179)" stroke-linejoin="round" d="M 12623,7205 L 12623,7055"/>
 <path fill="none" stroke="rgb(179,179,179)" stroke-linejoin="round" d="M 12623,7205 L 12623,7055"/>
 <path fill="none" stroke="rgb(179,179,179)" stroke-linejoin="round" d="M 12745,7205 L 12745,7055"/>
 <path fill="none" stroke="rgb(179,179,179)" stroke-linejoin="round" d="M 12745,7205 L 12745,7055"/>
 <path fill="none" stroke="rgb(179,179,179)" stroke-linejoin="round" d="M 12866,7205 L 12866,7055"/>
 <path fill="none" stroke="rgb(179,179,179)" stroke-linejoin="round" d="M 12866,7205 L 12866,7055"/>
 <path fill="none" stroke="rgb(179,179,179)" stroke-linejoin="round" d="M 12988,7205 L 12988,7055"/>
 <path fill="none" stroke="rgb(179,179,179)" stroke-linejoin="round" d="M 12988,7205 L 12988,7055"/>
 <path fill="none" stroke="rgb(179,179,179)" stroke-linejoin="round" d="M 13110,7205 L 13110,7055"/>
 <path fill="none" stroke="rgb(179,179,179)" stroke-linejoin="round" d="M 13110,7205 L 13110,7055"/>
 <path fill="none" stroke="rgb(179,179,179)" stroke-linejoin="round" d="M 13231,7205 L 13231,7055"/>
 <path fill="none" stroke="rgb(179,179,179)" stroke-linejoin="round" d="M 13231,7205 L 13231,7055"/>
 <path fill="none" stroke="rgb(179,179,179)" stroke-linejoin="round" d="M 13353,7205 L 13353,7055"/>
 <path fill="none" stroke="rgb(179,179,179)" stroke-linejoin="round" d="M 13353,7205 L 13353,7055"/>
 <path fill="none" stroke="rgb(179,179,179)" stroke-linejoin="round" d="M 13474,7205 L 13474,7055"/>
 <path fill="none" stroke="rgb(179,179,179)" stroke-linejoin="round" d="M 13474,7205 L 13474,7055"/>
 <path fill="none" stroke="rgb(179,179,179)" stroke-linejoin="round" d="M 13596,7205 L 13596,7055"/>
 <path fill="none" stroke="rgb(179,179,179)" stroke-linejoin="round" d="M 13596,7205 L 13596,7055"/>
 <path fill="none" stroke="rgb(179,179,179)" stroke-linejoin="round" d="M 13718,7205 L 13718,7055"/>
 <path fill="none" stroke="rgb(179,179,179)" stroke-linejoin="round" d="M 13718,7205 L 13718,7055"/>
 <path fill="none" stroke="rgb(179,179,179)" stroke-linejoin="round" d="M 3505,7055 L 13718,7055"/>
 <path fill="none" stroke="rgb(179,179,179)" stroke-linejoin="round" d="M 3355,7055 L 3505,7055"/>
 <path fill="none" stroke="rgb(179,179,179)" stroke-linejoin="round" d="M 3355,7055 L 3505,7055"/>
 <path fill="none" stroke="rgb(179,179,179)" stroke-linejoin="round" d="M 3355,6382 L 3505,6382"/>
 <path fill="none" stroke="rgb(179,179,179)" stroke-linejoin="round" d="M 3355,6382 L 3505,6382"/>
 <path fill="none" stroke="rgb(179,179,179)" stroke-linejoin="round" d="M 3355,5710 L 3505,5710"/>
 <path fill="none" stroke="rgb(179,179,179)" stroke-linejoin="round" d="M 3355,5710 L 3505,5710"/>
 <path fill="none" stroke="rgb(179,179,179)" stroke-linejoin="round" d="M 3355,5038 L 3505,5038"/>
 <path fill="none" stroke="rgb(179,179,179)" stroke-linejoin="round" d="M 3355,5038 L 3505,5038"/>
 <path fill="none" stroke="rgb(179,179,179)" stroke-linejoin="round" d="M 3355,4366 L 3505,4366"/>
 <path fill="none" stroke="rgb(179,179,179)" stroke-linejoin="round" d="M 3355,4366 L 3505,4366"/>
 <path fill="none" stroke="rgb(179,179,179)" stroke-linejoin="round" d="M 3355,3694 L 3505,3694"/>
 <path fill="none" stroke="rgb(179,179,179)" stroke-linejoin="round" d="M 3355,3694 L 3505,3694"/>
 <path fill="none" stroke="rgb(179,179,179)" stroke-linejoin="round" d="M 3355,3022 L 3505,3022"/>
 <path fill="none" stroke="rgb(179,179,179)" stroke-linejoin="round" d="M 3355,3022 L 3505,3022"/>
 <path fill="none" stroke="rgb(179,179,179)" stroke-linejoin="round" d="M 3355,2350 L 3505,2350"/>
 <path fill="none" stroke="rgb(179,179,179)" stroke-linejoin="round" d="M 3355,2350 L 3505,2350"/>
 <path fill="none" stroke="rgb(179,179,179)" stroke-linejoin="round" d="M 3505,7055 L 3505,2350"/>
 <path fill="none" stroke="rgb(255,56,56)" stroke-width="80" stroke-linejoin="round" d="M 3505,2667 L 3626,3128 3748,3543 3869,4008 3991,4347 4112,4651 4234,4911 4356,5117 4477,5328 4599,5488 4720,5627 4842,5755 4964,5838 5085,5924 5207,5995 5328,6061 5450,6128 5572,6173 5693,6251 5815,6296 5936,6349 6058,6383 6180,6417 6301,6448 6423,6469 6544,6489 6666,6515 6788,6533 6909,6555 7031,6571 7152,6581 7274,6596 7396,6611 7517,6627 7639,6639 7760,6652 7882,6659 8003,6671 8124,6677 8246,6685 8367,6692 8489,6698 8611,6705 8732,6713 8854,6719 8975,6726 9097,6730 9218,6732 9340,6740 9462,6744 9583,6750 9705,6753 9826,6758 9948,6763 10070,6766 10191,6770 10313,6773 10434,6776 10556,6780 10678,6782 10799,6784 10921,6787 11042,6791 11164,6794 11286,6796 11407,6798 11529,6800 11650,6803 11772,6805 11894,6807 12015,6810 12137,6813 12258,6814 12380,6817 12502,6820 12623,6821 12745,6823 12866,6824 12988,6826 13110,6829 13231,6831 13353,6833 13474,6834 13596,6836 13718,6839"/>
 <text class="TextShape" transform="rotate(-44.9 3453 7668)"><tspan class="TextParagraph" font-family="Liberation Sans, sans-serif" font-size="353px" font-weight="400"><tspan class="TextPosition" x="3453" y="7668"><tspan fill="rgb(0,0,0)" stroke="none">1</tspan></tspan></tspan></text>
 <text class="TextShape" transform="rotate(-44.9 4060 7668)"><tspan class="TextParagraph" font-family="Liberation Sans, sans-serif" font-size="353px" font-weight="400"><tspan class="TextPosition" x="4060" y="7668"><tspan fill="rgb(0,0,0)" stroke="none">6</tspan></tspan></tspan></text>
 <text class="TextShape" transform="rotate(-44.9 4532 7804)"><tspan class="TextParagraph" font-family="Liberation Sans, sans-serif" font-size="353px" font-weight="400"><tspan class="TextPosition" x="4532" y="7804"><tspan fill="rgb(0,0,0)" stroke="none">11</tspan></tspan></tspan></text>
 <text class="TextShape" transform="rotate(-44.9 5140 7804)"><tspan class="TextParagraph" font-family="Liberation Sans, sans-serif" font-size="353px" font-weight="400"><tspan class="TextPosition" x="5140" y="7804"><tspan fill="rgb(0,0,0)" stroke="none">16</tspan></tspan></tspan></text>
 <text class="TextShape" transform="rotate(-44.9 5748 7804)"><tspan class="TextParagraph" font-family="Liberation Sans, sans-serif" font-size="353px" font-weight="400"><tspan class="TextPosition" x="5748" y="7804"><tspan fill="rgb(0,0,0)" stroke="none">21</tspan></tspan></tspan></text>
 <text class="TextShape" transform="rotate(-44.9 6356 7804)"><tspan class="TextParagraph" font-family="Liberation Sans, sans-serif" font-size="353px" font-weight="400"><tspan class="TextPosition" x="6356" y="7804"><tspan fill="rgb(0,0,0)" stroke="none">26</tspan></tspan></tspan></text>
 <text class="TextShape" transform="rotate(-44.9 6964 7804)"><tspan class="TextParagraph" font-family="Liberation Sans, sans-serif" font-size="353px" font-weight="400"><tspan class="TextPosition" x="6964" y="7804"><tspan fill="rgb(0,0,0)" stroke="none">31</tspan></tspan></tspan></text>
 <text class="TextShape" transform="rotate(-44.9 7572 7804)"><tspan class="TextParagraph" font-family="Liberation Sans, sans-serif" font-size="353px" font-weight="400"><tspan class="TextPosition" x="7572" y="7804"><tspan fill="rgb(0,0,0)" stroke="none">36</tspan></tspan></tspan></text>
 <text class="TextShape" transform="rotate(-44.9 8180 7804)"><tspan class="TextParagraph" font-family="Liberation Sans, sans-serif" font-size="353px" font-weight="400"><tspan class="TextPosition" x="8180" y="7804"><tspan fill="rgb(0,0,0)" stroke="none">41</tspan></tspan></tspan></text>
 <text class="TextShape" transform="rotate(-44.9 8788 7804)"><tspan class="TextParagraph" font-family="Liberation Sans, sans-serif" font-size="353px" font-weight="400"><tspan class="TextPosition" x="8788" y="7804"><tspan fill="rgb(0,0,0)" stroke="none">46</tspan></tspan></tspan></text>
 <text class="TextShape" transform="rotate(-44.9 9396 7804)"><tspan class="TextParagraph" font-family="Liberation Sans, sans-serif" font-size="353px" font-weight="400"><tspan class="TextPosition" x="9396" y="7804"><tspan fill="rgb(0,0,0)" stroke="none">51</tspan></tspan></tspan></text>
 <text class="TextShape" transform="rotate(-44.9 10004 7804)"><tspan class="TextParagraph" font-family="Liberation Sans, sans-serif" font-size="353px" font-weight="400"><tspan class="TextPosition" x="10004" y="7804"><tspan fill="rgb(0,0,0)" stroke="none">56</tspan></tspan></tspan></text>
 <text class="TextShape" transform="rotate(-44.9 10612 7804)"><tspan class="TextParagraph" font-family="Liberation Sans, sans-serif" font-size="353px" font-weight="400"><tspan class="TextPosition" x="10612" y="7804"><tspan fill="rgb(0,0,0)" stroke="none">61</tspan></tspan></tspan></text>
 <text class="TextShape" transform="rotate(-44.9 11220 7804)"><tspan class="TextParagraph" font-family="Liberation Sans, sans-serif" font-size="353px" font-weight="400"><tspan class="TextPosition" x="11220" y="7804"><tspan fill="rgb(0,0,0)" stroke="none">66</tspan></tspan></tspan></text>
 <text class="TextShape" transform="rotate(-44.9 11827 7804)"><tspan class="TextParagraph" font-family="Liberation Sans, sans-serif" font-size="353px" font-weight="400"><tspan class="TextPosition" x="11827" y="7804"><tspan fill="rgb(0,0,0)" stroke="none">71</tspan></tspan></tspan></text>
 <text class="TextShape" transform="rotate(-44.9 12435 7804)"><tspan class="TextParagraph" font-family="Liberation Sans, sans-serif" font-size="353px" font-weight="400"><tspan class="TextPosition" x="12435" y="7804"><tspan fill="rgb(0,0,0)" stroke="none">76</tspan></tspan></tspan></text>
 <text class="TextShape" transform="rotate(-44.9 13043 7804)"><tspan class="TextParagraph" font-family="Liberation Sans, sans-serif" font-size="353px" font-weight="400"><tspan class="TextPosition" x="13043" y="7804"><tspan fill="rgb(0,0,0)" stroke="none">81</tspan></tspan></tspan></text>
 <text class="TextShape"><tspan class="TextParagraph" font-family="Liberation Sans, sans-serif" font-size="353px" font-weight="400"><tspan class="TextPosition" x="3061" y="7180"><tspan fill="rgb(0,0,0)" stroke="none">0</tspan></tspan></tspan></text>
 <text class="TextShape"><tspan class="TextParagraph" font-family="Liberation Sans, sans-serif" font-size="353px" font-weight="400"><tspan class="TextPosition" x="1315" y="6507"><tspan fill="rgb(0,0,0)" stroke="none">1000000000</tspan></tspan></tspan></text>
 <text class="TextShape"><tspan class="TextParagraph" font-family="Liberation Sans, sans-serif" font-size="353px" font-weight="400"><tspan class="TextPosition" x="1315" y="5835"><tspan fill="rgb(0,0,0)" stroke="none">2000000000</tspan></tspan></tspan></text>
 <text class="TextShape"><tspan class="TextParagraph" font-family="Liberation Sans, sans-serif" font-size="353px" font-weight="400"><tspan class="TextPosition" x="1315" y="5163"><tspan fill="rgb(0,0,0)" stroke="none">3000000000</tspan></tspan></tspan></text>
 <text class="TextShape"><tspan class="TextParagraph" font-family="Liberation Sans, sans-serif" font-size="353px" font-weight="400"><tspan class="TextPosition" x="1315" y="4490"><tspan fill="rgb(0,0,0)" stroke="none">4000000000</tspan></tspan></tspan></text>
 <text class="TextShape"><tspan class="TextParagraph" font-family="Liberation Sans, sans-serif" font-size="353px" font-weight="400"><tspan class="TextPosition" x="1315" y="3818"><tspan fill="rgb(0,0,0)" stroke="none">5000000000</tspan></tspan></tspan></text>
 <text class="TextShape"><tspan class="TextParagraph" font-family="Liberation Sans, sans-serif" font-size="353px" font-weight="400"><tspan class="TextPosition" x="1315" y="3146"><tspan fill="rgb(0,0,0)" stroke="none">6000000000</tspan></tspan></tspan></text>
 <text class="TextShape"><tspan class="TextParagraph" font-family="Liberation Sans, sans-serif" font-size="353px" font-weight="400"><tspan class="TextPosition" x="1315" y="2474"><tspan fill="rgb(0,0,0)" stroke="none">7000000000</tspan></tspan></tspan></text>
 <text class="TextShape"><tspan class="TextParagraph" font-family="Liberation Sans, sans-serif" font-size="459px" font-weight="400"><tspan class="TextPosition" x="6642" y="877"><tspan fill="rgb(0,0,0)" stroke="none">Training Loss</tspan></tspan></tspan></text>
 <text class="TextShape"><tspan class="TextParagraph" font-family="Liberation Sans, sans-serif" font-size="388px" font-weight="400"><tspan class="TextPosition" x="5857" y="1771"><tspan fill="rgb(0,0,0)" stroke="none">Rubix ML Gradient Boost</tspan></tspan></tspan></text>
 <path fill="none" stroke="rgb(255,56,56)" stroke-width="80" stroke-linejoin="round" d="M 14154,4499 L 14954,4499"/>
 <text class="TextShape"><tspan class="TextParagraph" font-family="Liberation Sans, sans-serif" font-size="353px" font-weight="400"><tspan class="TextPosition" x="15054" y="4622"><tspan fill="rgb(0,0,0)" stroke="none">loss</tspan></tspan></tspan></text>
 <text class="TextShape"><tspan class="TextParagraph" font-family="Liberation Sans, sans-serif" font-size="318px" font-weight="400"><tspan class="TextPosition" x="7066" y="8414"><tspan fill="rgb(0,0,0)" stroke="none">Epoch</tspan></tspan></tspan></text>
 <text class="TextShape" transform="rotate(-90 828 5560)"><tspan class="TextParagraph" font-family="Liberation Sans, sans-serif" font-size="318px" font-weight="400"><tspan class="TextPosition" x="828" y="5560"><tspan fill="rgb(0,0,0)" stroke="none">L2 Loss</tspan></tspan></tspan></text>
</svg>