<?xml version="1.0" encoding="UTF-8"?>
<!DOCTYPE svg PUBLIC "-//W3C//DTD SVG 1.1//EN" "http://www.w3.org/Graphics/SVG/1.1/DTD/svg11.dtd">
<svg width="181mm" height="106mm" viewBox="0 0 18100 10600" version="1.1" xmlns="http://www.w3.org/2000/svg" xmlns:xlink="http://www.w3.org/1999/xlink" stroke-width="28.222" stroke-linejoin="round" xml:space="preserve">
 <path fill="rgb(255,255,255)" stroke="none" d="M 9033,10602 L 0,10602 0,0 18066,0 18066,10602 9033,10602 Z"/>
 <path fill="none" stroke="rgb(179,179,179)" stroke-linejoin="round" d="M 9575,8627 L 3546,8627 3546,2447 15605,2447 15605,8627 9575,8627 Z"/>
 <path fill="none" stroke="rgb(179,179,179)" stroke-linejoin="round" d="M 15605,8626 L 3546,8626"/>
 <path fill="none" stroke="rgb(179,179,179)" stroke-linejoin="round" d="M 15605,7743 L 3546,7743"/>
 <path fill="none" stroke="rgb(179,179,179)" stroke-linejoin="round" d="M 15605,6860 L 3546,6860"/>
 <path fill="none" stroke="rgb(179,179,179)" stroke-linejoin="round" d="M 15605,5977 L 3546,5977"/>
 <path fill="none" stroke="rgb(179,179,179)" stroke-linejoin="round" d="M 15605,5095 L 3546,5095"/>
 <path fill="none" stroke="rgb(179,179,179)" stroke-linejoin="round" d="M 15605,4212 L 3546,4212"/>
 <path fill="none" stroke="rgb(179,179,179)" stroke-linejoin="round" d="M 15605,3329 L 3546,3329"/>
 <path fill="none" stroke="rgb(179,179,179)" stroke-linejoin="round" d="M 15605,2446 L 3546,2446"/>
 <path fill="none" stroke="rgb(179,179,179)" stroke-linejoin="round" d="M 3546,8776 L 3546,8626"/>
 <path fill="none" stroke="rgb(179,179,179)" stroke-linejoin="round" d="M 3546,8776 L 3546,8626"/>
 <path fill="none" stroke="rgb(179,179,179)" stroke-linejoin="round" d="M 3689,8776 L 3689,8626"/>
 <path fill="none" stroke="rgb(179,179,179)" stroke-linejoin="round" d="M 3689,8776 L 3689,8626"/>
 <path fill="none" stroke="rgb(179,179,179)" stroke-linejoin="round" d="M 3833,8776 L 3833,8626"/>
 <path fill="none" stroke="rgb(179,179,179)" stroke-linejoin="round" d="M 3833,8776 L 3833,8626"/>
 <path fill="none" stroke="rgb(179,179,179)" stroke-linejoin="round" d="M 3976,8776 L 3976,8626"/>
 <path fill="none" stroke="rgb(179,179,179)" stroke-linejoin="round" d="M 3976,8776 L 3976,8626"/>
 <path fill="none" stroke="rgb(179,179,179)" stroke-linejoin="round" d="M 4120,8776 L 4120,8626"/>
 <path fill="none" stroke="rgb(179,179,179)" stroke-linejoin="round" d="M 4120,8776 L 4120,8626"/>
 <path fill="none" stroke="rgb(179,179,179)" stroke-linejoin="round" d="M 4263,8776 L 4263,8626"/>
 <path fill="none" stroke="rgb(179,179,179)" stroke-linejoin="round" d="M 4263,8776 L 4263,8626"/>
 <path fill="none" stroke="rgb(179,179,179)" stroke-linejoin="round" d="M 4407,8776 L 4407,8626"/>
 <path fill="none" stroke="rgb(179,179,179)" stroke-linejoin="round" d="M 4407,8776 L 4407,8626"/>
 <path fill="none" stroke="rgb(179,179,179)" stroke-linejoin="round" d="M 4551,8776 L 4551,8626"/>
 <path fill="none" stroke="rgb(179,179,179)" stroke-linejoin="round" d="M 4551,8776 L 4551,8626"/>
 <path fill="none" stroke="rgb(179,179,179)" stroke-linejoin="round" d="M 4694,8776 L 4694,8626"/>
 <path fill="none" stroke="rgb(179,179,179)" stroke-linejoin="round" d="M 4694,8776 L 4694,8626"/>
 <path fill="none" stroke="rgb(179,179,179)" stroke-linejoin="round" d="M 4838,8776 L 4838,8626"/>
 <path fill="none" stroke="rgb(179,179,179)" stroke-linejoin="round" d="M 4838,8776 L 4838,8626"/>
 <path fill="none" stroke="rgb(179,179,179)" stroke-linejoin="round" d="M 4981,8776 L 4981,8626"/>
 <path fill="none" stroke="rgb(179,179,179)" stroke-linejoin="round" d="M 4981,8776 L 4981,8626"/>
 <path fill="none" stroke="rgb(179,179,179)" stroke-linejoin="round" d="M 5125,8776 L 5125,8626"/>
 <path fill="none" stroke="rgb(179,179,179)" stroke-linejoin="round" d="M 5125,8776 L 5125,8626"/>
 <path fill="none" stroke="rgb(179,179,179)" stroke-linejoin="round" d="M 5268,8776 L 5268,8626"/>
 <path fill="none" stroke="rgb(179,179,179)" stroke-linejoin="round" d="M 5268,8776 L 5268,8626"/>
 <path fill="none" stroke="rgb(179,179,179)" stroke-linejoin="round" d="M 5412,8776 L 5412,8626"/>
 <path fill="none" stroke="rgb(179,179,179)" stroke-linejoin="round" d="M 5412,8776 L 5412,8626"/>
 <path fill="none" stroke="rgb(179,179,179)" stroke-linejoin="round" d="M 5556,8776 L 5556,8626"/>
 <path fill="none" stroke="rgb(179,179,179)" stroke-linejoin="round" d="M 5556,8776 L 5556,8626"/>
 <path fill="none" stroke="rgb(179,179,179)" stroke-linejoin="round" d="M 5699,8776 L 5699,8626"/>
 <path fill="none" stroke="rgb(179,179,179)" stroke-linejoin="round" d="M 5699,8776 L 5699,8626"/>
 <path fill="none" stroke="rgb(179,179,179)" stroke-linejoin="round" d="M 5843,8776 L 5843,8626"/>
 <path fill="none" stroke="rgb(179,179,179)" stroke-linejoin="round" d="M 5843,8776 L 5843,8626"/>
 <path fill="none" stroke="rgb(179,179,179)" stroke-linejoin="round" d="M 5986,8776 L 5986,8626"/>
 <path fill="none" stroke="rgb(179,179,179)" stroke-linejoin="round" d="M 5986,8776 L 5986,8626"/>
 <path fill="none" stroke="rgb(179,179,179)" stroke-linejoin="round" d="M 6130,8776 L 6130,8626"/>
 <path fill="none" stroke="rgb(179,179,179)" stroke-linejoin="round" d="M 6130,8776 L 6130,8626"/>
 <path fill="none" stroke="rgb(179,179,179)" stroke-linejoin="round" d="M 6273,8776 L 6273,8626"/>
 <path fill="none" stroke="rgb(179,179,179)" stroke-linejoin="round" d="M 6273,8776 L 6273,8626"/>
 <path fill="none" stroke="rgb(179,179,179)" stroke-linejoin="round" d="M 6417,8776 L 6417,8626"/>
 <path fill="none" stroke="rgb(179,179,179)" stroke-linejoin="round" d="M 6417,8776 L 6417,8626"/>
 <path fill="none" stroke="rgb(179,179,179)" stroke-linejoin="round" d="M 6561,8776 L 6561,8626"/>
 <path fill="none" stroke="rgb(179,179,179)" stroke-linejoin="round" d="M 6561,8776 L 6561,8626"/>
 <path fill="none" stroke="rgb(179,179,179)" stroke-linejoin="round" d="M 6704,8776 L 6704,8626"/>
 <path fill="none" stroke="rgb(179,179,179)" stroke-linejoin="round" d="M 6704,8776 L 6704,8626"/>
 <path fill="none" stroke="rgb(179,179,179)" stroke-linejoin="round" d="M 6848,8776 L 6848,8626"/>
 <path fill="none" stroke="rgb(179,179,179)" stroke-linejoin="round" d="M 6848,8776 L 6848,8626"/>
 <path fill="none" stroke="rgb(179,179,179)" stroke-linejoin="round" d="M 6991,8776 L 6991,8626"/>
 <path fill="none" stroke="rgb(179,179,179)" stroke-linejoin="round" d="M 6991,8776 L 6991,8626"/>
 <path fill="none" stroke="rgb(179,179,179)" stroke-linejoin="round" d="M 7135,8776 L 7135,8626"/>
 <path fill="none" stroke="rgb(179,179,179)" stroke-linejoin="round" d="M 7135,8776 L 7135,8626"/>
 <path fill="none" stroke="rgb(179,179,179)" stroke-linejoin="round" d="M 7278,8776 L 7278,8626"/>
 <path fill="none" stroke="rgb(179,179,179)" stroke-linejoin="round" d="M 7278,8776 L 7278,8626"/>
 <path fill="none" stroke="rgb(179,179,179)" stroke-linejoin="round" d="M 7422,8776 L 7422,8626"/>
 <path fill="none" stroke="rgb(179,179,179)" stroke-linejoin="round" d="M 7422,8776 L 7422,8626"/>
 <path fill="none" stroke="rgb(179,179,179)" stroke-linejoin="round" d="M 7566,8776 L 7566,8626"/>
 <path fill="none" stroke="rgb(179,179,179)" stroke-linejoin="round" d="M 7566,8776 L 7566,8626"/>
 <path fill="none" stroke="rgb(179,179,179)" stroke-linejoin="round" d="M 7709,8776 L 7709,8626"/>
 <path fill="none" stroke="rgb(179,179,179)" stroke-linejoin="round" d="M 7709,8776 L 7709,8626"/>
 <path fill="none" stroke="rgb(179,179,179)" stroke-linejoin="round" d="M 7853,8776 L 7853,8626"/>
 <path fill="none" stroke="rgb(179,179,179)" stroke-linejoin="round" d="M 7853,8776 L 7853,8626"/>
 <path fill="none" stroke="rgb(179,179,179)" stroke-linejoin="round" d="M 7996,8776 L 7996,8626"/>
 <path fill="none" stroke="rgb(179,179,179)" stroke-linejoin="round" d="M 7996,8776 L 7996,8626"/>
 <path fill="none" stroke="rgb(179,179,179)" stroke-linejoin="round" d="M 8140,8776 L 8140,8626"/>
 <path fill="none" stroke="rgb(179,179,179)" stroke-linejoin="round" d="M 8140,8776 L 8140,8626"/>
 <path fill="none" stroke="rgb(179,179,179)" stroke-linejoin="round" d="M 8283,8776 L 8283,8626"/>
 <path fill="none" stroke="rgb(179,179,179)" stroke-linejoin="round" d="M 8283,8776 L 8283,8626"/>
 <path fill="none" stroke="rgb(179,179,179)" stroke-linejoin="round" d="M 8427,8776 L 8427,8626"/>
 <path fill="none" stroke="rgb(179,179,179)" stroke-linejoin="round" d="M 8427,8776 L 8427,8626"/>
 <path fill="none" stroke="rgb(179,179,179)" stroke-linejoin="round" d="M 8571,8776 L 8571,8626"/>
 <path fill="none" stroke="rgb(179,179,179)" stroke-linejoin="round" d="M 8571,8776 L 8571,8626"/>
 <path fill="none" stroke="rgb(179,179,179)" stroke-linejoin="round" d="M 8714,8776 L 8714,8626"/>
 <path fill="none" stroke="rgb(179,179,179)" stroke-linejoin="round" d="M 8714,8776 L 8714,8626"/>
 <path fill="none" stroke="rgb(179,179,179)" stroke-linejoin="round" d="M 8858,8776 L 8858,8626"/>
 <path fill="none" stroke="rgb(179,179,179)" stroke-linejoin="round" d="M 8858,8776 L 8858,8626"/>
 <path fill="none" stroke="rgb(179,179,179)" stroke-linejoin="round" d="M 9001,8776 L 9001,8626"/>
 <path fill="none" stroke="rgb(179,179,179)" stroke-linejoin="round" d="M 9001,8776 L 9001,8626"/>
 <path fill="none" stroke="rgb(179,179,179)" stroke-linejoin="round" d="M 9144,8776 L 9144,8626"/>
 <path fill="none" stroke="rgb(179,179,179)" stroke-linejoin="round" d="M 9144,8776 L 9144,8626"/>
 <path fill="none" stroke="rgb(179,179,179)" stroke-linejoin="round" d="M 9287,8776 L 9287,8626"/>
 <path fill="none" stroke="rgb(179,179,179)" stroke-linejoin="round" d="M 9287,8776 L 9287,8626"/>
 <path fill="none" stroke="rgb(179,179,179)" stroke-linejoin="round" d="M 9431,8776 L 9431,8626"/>
 <path fill="none" stroke="rgb(179,179,179)" stroke-linejoin="round" d="M 9431,8776 L 9431,8626"/>
 <path fill="none" stroke="rgb(179,179,179)" stroke-linejoin="round" d="M 9575,8776 L 9575,8626"/>
 <path fill="none" stroke="rgb(179,179,179)" stroke-linejoin="round" d="M 9575,8776 L 9575,8626"/>
 <path fill="none" stroke="rgb(179,179,179)" stroke-linejoin="round" d="M 9718,8776 L 9718,8626"/>
 <path fill="none" stroke="rgb(179,179,179)" stroke-linejoin="round" d="M 9718,8776 L 9718,8626"/>
 <path fill="none" stroke="rgb(179,179,179)" stroke-linejoin="round" d="M 9862,8776 L 9862,8626"/>
 <path fill="none" stroke="rgb(179,179,179)" stroke-linejoin="round" d="M 9862,8776 L 9862,8626"/>
 <path fill="none" stroke="rgb(179,179,179)" stroke-linejoin="round" d="M 10005,8776 L 10005,8626"/>
 <path fill="none" stroke="rgb(179,179,179)" stroke-linejoin="round" d="M 10005,8776 L 10005,8626"/>
 <path fill="none" stroke="rgb(179,179,179)" stroke-linejoin="round" d="M 10149,8776 L 10149,8626"/>
 <path fill="none" stroke="rgb(179,179,179)" stroke-linejoin="round" d="M 10149,8776 L 10149,8626"/>
 <path fill="none" stroke="rgb(179,179,179)" stroke-linejoin="round" d="M 10292,8776 L 10292,8626"/>
 <path fill="none" stroke="rgb(179,179,179)" stroke-linejoin="round" d="M 10292,8776 L 10292,8626"/>
 <path fill="none" stroke="rgb(179,179,179)" stroke-linejoin="round" d="M 10436,8776 L 10436,8626"/>
 <path fill="none" stroke="rgb(179,179,179)" stroke-linejoin="round" d="M 10436,8776 L 10436,8626"/>
 <path fill="none" stroke="rgb(179,179,179)" stroke-linejoin="round" d="M 10580,8776 L 10580,8626"/>
 <path fill="none" stroke="rgb(179,179,179)" stroke-linejoin="round" d="M 10580,8776 L 10580,8626"/>
 <path fill="none" stroke="rgb(179,179,179)" stroke-linejoin="round" d="M 10723,8776 L 10723,8626"/>
 <path fill="none" stroke="rgb(179,179,179)" stroke-linejoin="round" d="M 10723,8776 L 10723,8626"/>
 <path fill="none" stroke="rgb(179,179,179)" stroke-linejoin="round" d="M 10867,8776 L 10867,8626"/>
 <path fill="none" stroke="rgb(179,179,179)" stroke-linejoin="round" d="M 10867,8776 L 10867,8626"/>
 <path fill="none" stroke="rgb(179,179,179)" stroke-linejoin="round" d="M 11010,8776 L 11010,8626"/>
 <path fill="none" stroke="rgb(179,179,179)" stroke-linejoin="round" d="M 11010,8776 L 11010,8626"/>
 <path fill="none" stroke="rgb(179,179,179)" stroke-linejoin="round" d="M 11154,8776 L 11154,8626"/>
 <path fill="none" stroke="rgb(179,179,179)" stroke-linejoin="round" d="M 11154,8776 L 11154,8626"/>
 <path fill="none" stroke="rgb(179,179,179)" stroke-linejoin="round" d="M 11297,8776 L 11297,8626"/>
 <path fill="none" stroke="rgb(179,179,179)" stroke-linejoin="round" d="M 11297,8776 L 11297,8626"/>
 <path fill="none" stroke="rgb(179,179,179)" stroke-linejoin="round" d="M 11441,8776 L 11441,8626"/>
 <path fill="none" stroke="rgb(179,179,179)" stroke-linejoin="round" d="M 11441,8776 L 11441,8626"/>
 <path fill="none" stroke="rgb(179,179,179)" stroke-linejoin="round" d="M 11585,8776 L 11585,8626"/>
 <path fill="none" stroke="rgb(179,179,179)" stroke-linejoin="round" d="M 11585,8776 L 11585,8626"/>
 <path fill="none" stroke="rgb(179,179,179)" stroke-linejoin="round" d="M 11728,8776 L 11728,8626"/>
 <path fill="none" stroke="rgb(179,179,179)" stroke-linejoin="round" d="M 11728,8776 L 11728,8626"/>
 <path fill="none" stroke="rgb(179,179,179)" stroke-linejoin="round" d="M 11872,8776 L 11872,8626"/>
 <path fill="none" stroke="rgb(179,179,179)" stroke-linejoin="round" d="M 11872,8776 L 11872,8626"/>
 <path fill="none" stroke="rgb(179,179,179)" stroke-linejoin="round" d="M 12015,8776 L 12015,8626"/>
 <path fill="none" stroke="rgb(179,179,179)" stroke-linejoin="round" d="M 12015,8776 L 12015,8626"/>
 <path fill="none" stroke="rgb(179,179,179)" stroke-linejoin="round" d="M 12159,8776 L 12159,8626"/>
 <path fill="none" stroke="rgb(179,179,179)" stroke-linejoin="round" d="M 12159,8776 L 12159,8626"/>
 <path fill="none" stroke="rgb(179,179,179)" stroke-linejoin="round" d="M 12302,8776 L 12302,8626"/>
 <path fill="none" stroke="rgb(179,179,179)" stroke-linejoin="round" d="M 12302,8776 L 12302,8626"/>
 <path fill="none" stroke="rgb(179,179,179)" stroke-linejoin="round" d="M 12446,8776 L 12446,8626"/>
 <path fill="none" stroke="rgb(179,179,179)" stroke-linejoin="round" d="M 12446,8776 L 12446,8626"/>
 <path fill="none" stroke="rgb(179,179,179)" stroke-linejoin="round" d="M 12590,8776 L 12590,8626"/>
 <path fill="none" stroke="rgb(179,179,179)" stroke-linejoin="round" d="M 12590,8776 L 12590,8626"/>
 <path fill="none" stroke="rgb(179,179,179)" stroke-linejoin="round" d="M 12733,8776 L 12733,8626"/>
 <path fill="none" stroke="rgb(179,179,179)" stroke-linejoin="round" d="M 12733,8776 L 12733,8626"/>
 <path fill="none" stroke="rgb(179,179,179)" stroke-linejoin="round" d="M 12877,8776 L 12877,8626"/>
 <path fill="none" stroke="rgb(179,179,179)" stroke-linejoin="round" d="M 12877,8776 L 12877,8626"/>
 <path fill="none" stroke="rgb(179,179,179)" stroke-linejoin="round" d="M 13020,8776 L 13020,8626"/>
 <path fill="none" stroke="rgb(179,179,179)" stroke-linejoin="round" d="M 13020,8776 L 13020,8626"/>
 <path fill="none" stroke="rgb(179,179,179)" stroke-linejoin="round" d="M 13164,8776 L 13164,8626"/>
 <path fill="none" stroke="rgb(179,179,179)" stroke-linejoin="round" d="M 13164,8776 L 13164,8626"/>
 <path fill="none" stroke="rgb(179,179,179)" stroke-linejoin="round" d="M 13307,8776 L 13307,8626"/>
 <path fill="none" stroke="rgb(179,179,179)" stroke-linejoin="round" d="M 13307,8776 L 13307,8626"/>
 <path fill="none" stroke="rgb(179,179,179)" stroke-linejoin="round" d="M 13451,8776 L 13451,8626"/>
 <path fill="none" stroke="rgb(179,179,179)" stroke-linejoin="round" d="M 13451,8776 L 13451,8626"/>
 <path fill="none" stroke="rgb(179,179,179)" stroke-linejoin="round" d="M 13595,8776 L 13595,8626"/>
 <path fill="none" stroke="rgb(179,179,179)" stroke-linejoin="round" d="M 13595,8776 L 13595,8626"/>
 <path fill="none" stroke="rgb(179,179,179)" stroke-linejoin="round" d="M 13738,8776 L 13738,8626"/>
 <path fill="none" stroke="rgb(179,179,179)" stroke-linejoin="round" d="M 13738,8776 L 13738,8626"/>
 <path fill="none" stroke="rgb(179,179,179)" stroke-linejoin="round" d="M 13882,8776 L 13882,8626"/>
 <path fill="none" stroke="rgb(179,179,179)" stroke-linejoin="round" d="M 13882,8776 L 13882,8626"/>
 <path fill="none" stroke="rgb(179,179,179)" stroke-linejoin="round" d="M 14025,8776 L 14025,8626"/>
 <path fill="none" stroke="rgb(179,179,179)" stroke-linejoin="round" d="M 14025,8776 L 14025,8626"/>
 <path fill="none" stroke="rgb(179,179,179)" stroke-linejoin="round" d="M 14169,8776 L 14169,8626"/>
 <path fill="none" stroke="rgb(179,179,179)" stroke-linejoin="round" d="M 14169,8776 L 14169,8626"/>
 <path fill="none" stroke="rgb(179,179,179)" stroke-linejoin="round" d="M 14312,8776 L 14312,8626"/>
 <path fill="none" stroke="rgb(179,179,179)" stroke-linejoin="round" d="M 14312,8776 L 14312,8626"/>
 <path fill="none" stroke="rgb(179,179,179)" stroke-linejoin="round" d="M 14456,8776 L 14456,8626"/>
 <path fill="none" stroke="rgb(179,179,179)" stroke-linejoin="round" d="M 14456,8776 L 14456,8626"/>
 <path fill="none" stroke="rgb(179,179,179)" stroke-linejoin="round" d="M 14600,8776 L 14600,8626"/>
 <path fill="none" stroke="rgb(179,179,179)" stroke-linejoin="round" d="M 14600,8776 L 14600,8626"/>
 <path fill="none" stroke="rgb(179,179,179)" stroke-linejoin="round" d="M 14743,8776 L 14743,8626"/>
 <path fill="none" stroke="rgb(179,179,179)" stroke-linejoin="round" d="M 14743,8776 L 14743,8626"/>
 <path fill="none" stroke="rgb(179,179,179)" stroke-linejoin="round" d="M 14887,8776 L 14887,8626"/>
 <path fill="none" stroke="rgb(179,179,179)" stroke-linejoin="round" d="M 14887,8776 L 14887,8626"/>
 <path fill="none" stroke="rgb(179,179,179)" stroke-linejoin="round" d="M 15030,8776 L 15030,8626"/>
 <path fill="none" stroke="rgb(179,179,179)" stroke-linejoin="round" d="M 15030,8776 L 15030,8626"/>
 <path fill="none" stroke="rgb(179,179,179)" stroke-linejoin="round" d="M 15174,8776 L 15174,8626"/>
 <path fill="none" stroke="rgb(179,179,179)" stroke-linejoin="round" d="M 15174,8776 L 15174,8626"/>
 <path fill="none" stroke="rgb(179,179,179)" stroke-linejoin="round" d="M 15317,8776 L 15317,8626"/>
 <path fill="none" stroke="rgb(179,179,179)" stroke-linejoin="round" d="M 15317,8776 L 15317,8626"/>
 <path fill="none" stroke="rgb(179,179,179)" stroke-linejoin="round" d="M 15461,8776 L 15461,8626"/>
 <path fill="none" stroke="rgb(179,179,179)" stroke-linejoin="round" d="M 15461,8776 L 15461,8626"/>
 <path fill="none" stroke="rgb(179,179,179)" stroke-linejoin="round" d="M 15605,8776 L 15605,8626"/>
 <path fill="none" stroke="rgb(179,179,179)" stroke-linejoin="round" d="M 15605,8776 L 15605,8626"/>
 <path fill="none" stroke="rgb(179,179,179)" stroke-linejoin="round" d="M 3546,8626 L 15605,8626"/>
 <path fill="none" stroke="rgb(179,179,179)" stroke-linejoin="round" d="M 3396,8626 L 3546,8626"/>
 <path fill="none" stroke="rgb(179,179,179)" stroke-linejoin="round" d="M 3396,8626 L 3546,8626"/>
 <path fill="none" stroke="rgb(179,179,179)" stroke-linejoin="round" d="M 3396,7743 L 3546,7743"/>
 <path fill="none" stroke="rgb(179,179,179)" stroke-linejoin="round" d="M 3396,7743 L 3546,7743"/>
 <path fill="none" stroke="rgb(179,179,179)" stroke-linejoin="round" d="M 3396,6860 L 3546,6860"/>
 <path fill="none" stroke="rgb(179,179,179)" stroke-linejoin="round" d="M 3396,6860 L 3546,6860"/>
 <path fill="none" stroke="rgb(179,179,179)" stroke-linejoin="round" d="M 3396,5977 L 3546,5977"/>
 <path fill="none" stroke="rgb(179,179,179)" stroke-linejoin="round" d="M 3396,5977 L 3546,5977"/>
 <path fill="none" stroke="rgb(179,179,179)" stroke-linejoin="round" d="M 3396,5095 L 3546,5095"/>
 <path fill="none" stroke="rgb(179,179,179)" stroke-linejoin="round" d="M 3396,5095 L 3546,5095"/>
 <path fill="none" stroke="rgb(179,179,179)" stroke-linejoin="round" d="M 3396,4212 L 3546,4212"/>
 <path fill="none" stroke="rgb(179,179,179)" stroke-linejoin="round" d="M 3396,4212 L 3546,4212"/>
 <path fill="none" stroke="rgb(179,179,179)" stroke-linejoin="round" d="M 3396,3329 L 3546,3329"/>
 <path fill="none" stroke="rgb(179,179,179)" stroke-linejoin="round" d="M 3396,3329 L 3546,3329"/>
 <path fill="none" stroke="rgb(179,179,179)" stroke-linejoin="round" d="M 3396,2446 L 3546,2446"/>
 <path fill="none" stroke="rgb(179,179,179)" stroke-linejoin="round" d="M 3396,2446 L 3546,2446"/>
 <path fill="none" stroke="rgb(179,179,179)" stroke-linejoin="round" d="M 3546,8626 L 3546,2446"/>
 <path fill="none" stroke="rgb(255,56,56)" stroke-width="80" stroke-linejoin="round" d="M 3546,2862 L 3689,3468 3833,4013 3976,4624 4120,5069 4263,5469 4407,5811 4551,6081 4694,6358 4838,6567 4981,6750 5125,6919 5268,7028 5412,7141 5556,7234 5699,7321 5843,7409 5986,7468 6130,7570 6273,7629 6417,7698 6561,7743 6704,7789 6848,7828 6991,7856 7135,7883 7278,7917 7422,7940 7566,7970 7709,7991 7853,8004 7996,8024 8140,8043 8283,8064 8427,8080 8571,8097 8714,8106 8858,8121 9001,8129 9144,8140 9287,8150 9431,8157 9575,8166 9718,8177 9862,8185 10005,8193 10149,8199 10292,8202 10436,8213 10580,8218 10723,8226 10867,8229 11010,8236 11154,8242 11297,8246 11441,8252 11585,8256 11728,8259 11872,8265 12015,8268 12159,8270 12302,8274 12446,8280 12590,8284 12733,8285 12877,8288 13020,8292 13164,8295 13307,8298 13451,8301 13595,8305 13738,8308 13882,8310 14025,8314 14169,8317 14312,8319 14456,8321 14600,8323 14743,8326 14887,8329 15030,8332 15174,8335 15317,8336 15461,8339 15605,8342"/>
 <text class="TextShape" transform="rotate(-44.9 3494 9239)"><tspan class="TextParagraph" font-family="Liberation Sans, sans-serif" font-size="353px" font-weight="400"><tspan class="TextPosition" x="3494" y="9239"><tspan fill="rgb(0,0,0)" stroke="none">1</tspan></tspan></tspan></text>
 <text class="TextShape" transform="rotate(-44.9 4068 9239)"><tspan class="TextParagraph" font-family="Liberation Sans, sans-serif" font-size="353px" font-weight="400"><tspan class="TextPosition" x="4068" y="9239"><tspan fill="rgb(0,0,0)" stroke="none">5</tspan></tspan></tspan></text>
 <text class="TextShape" transform="rotate(-44.9 4642 9239)"><tspan class="TextParagraph" font-family="Liberation Sans, sans-serif" font-size="353px" font-weight="400"><tspan class="TextPosition" x="4642" y="9239"><tspan fill="rgb(0,0,0)" stroke="none">9</tspan></tspan></tspan></text>
 <text class="TextShape" transform="rotate(-44.9 5080 9375)"><tspan class="TextParagraph" font-family="Liberation Sans, sans-serif" font-size="353px" font-weight="400"><tspan class="TextPosition" x="5080" y="9375"><tspan fill="rgb(0,0,0)" stroke="none">13</tspan></tspan></tspan></text>
 <text class="TextShape" transform="rotate(-44.9 5655 9375)"><tspan class="TextParagraph" font-family="Liberation Sans, sans-serif" font-size="353px" font-weight="400"><tspan class="TextPosition" x="5655" y="9375"><tspan fill="rgb(0,0,0)" stroke="none">17</tspan></tspan></tspan></text>
 <text class="TextShape" transform="rotate(-44.9 6229 9375)"><tspan class="TextParagraph" font-family="Liberation Sans, sans-serif" font-size="353px" font-weight="400"><tspan class="TextPosition" x="6229" y="9375"><tspan fill="rgb(0,0,0)" stroke="none">21</tspan></tspan></tspan></text>
 <text class="TextShape" transform="rotate(-44.9 6803 9375)"><tspan class="TextParagraph" font-family="Liberation Sans, sans-serif" font-size="353px" font-weight="400"><tspan class="TextPosition" x="6803" y="9375"><tspan fill="rgb(0,0,0)" stroke="none">25</tspan></tspan></tspan></text>
 <text class="TextShape" transform="rotate(-44.9 7378 9375)"><tspan class="TextParagraph" font-family="Liberation Sans, sans-serif" font-size="353px" font-weight="400"><tspan class="TextPosition" x="7378" y="9375"><tspan fill="rgb(0,0,0)" stroke="none">29</tspan></tspan></tspan></text>
 <text class="TextShape" transform="rotate(-44.9 7952 9375)"><tspan class="TextParagraph" font-family="Liberation Sans, sans-serif" font-size="353px" font-weight="400"><tspan class="TextPosition" x="7952" y="9375"><tspan fill="rgb(0,0,0)" stroke="none">33</tspan></tspan></tspan></text>
 <text class="TextShape" transform="rotate(-44.9 8526 9375)"><tspan class="TextParagraph" font-family="Liberation Sans, sans-serif" font-size="353px" font-weight="400"><tspan class="TextPosition" x="8526" y="9375"><tspan fill="rgb(0,0,0)" stroke="none">37</tspan></tspan></tspan></text>
 <text class="TextShape" transform="rotate(-44.9 9100 9375)"><tspan class="TextParagraph" font-family="Liberation Sans, sans-serif" font-size="353px" font-weight="400"><tspan class="TextPosition" x="9100" y="9375"><tspan fill="rgb(0,0,0)" stroke="none">41</tspan></tspan></tspan></text>
 <text class="TextShape" transform="rotate(-44.9 9675 9375)"><tspan class="TextParagraph" font-family="Liberation Sans, sans-serif" font-size="353px" font-weight="400"><tspan class="TextPosition" x="9675" y="9375"><tspan fill="rgb(0,0,0)" stroke="none">45</tspan></tspan></tspan></text>
 <text class="TextShape" transform="rotate(-44.9 10249 9375)"><tspan class="TextParagraph" font-family="Liberation Sans, sans-serif" font-size="353px" font-weight="400"><tspan class="TextPosition" x="10249" y="9375"><tspan fill="rgb(0,0,0)" stroke="none">49</tspan></tspan></tspan></text>
 <text class="TextShape" transform="rotate(-44.9 10823 9375)"><tspan class="TextParagraph" font-family="Liberation Sans, sans-serif" font-size="353px" font-weight="400"><tspan class="TextPosition" x="10823" y="9375"><tspan fill="rgb(0,0,0)" stroke="none">53</tspan></tspan></tspan></text>
 <text class="TextShape" transform="rotate(-44.9 11398 9375)"><tspan class="TextParagraph" font-family="Liberation Sans, sans-serif" font-size="353px" font-weight="400"><tspan class="TextPosition" x="11398" y="9375"><tspan fill="rgb(0,0,0)" stroke="none">57</tspan></tspan></tspan></text>
 <text class="TextShape" transform="rotate(-44.9 11972 9375)"><tspan class="TextParagraph" font-family="Liberation Sans, sans-serif" font-size="353px" font-weight="400"><tspan class="TextPosition" x="11972" y="9375"><tspan fill="rgb(0,0,0)" stroke="none">61</tspan></tspan></tspan></text>
 <text class="TextShape" transform="rotate(-44.9 12546 9375)"><tspan class="TextParagraph" font-family="Liberation Sans, sans-serif" font-size="353px" font-weight="400"><tspan class="TextPosition" x="12546" y="9375"><tspan fill="rgb(0,0,0)" stroke="none">65</tspan></tspan></tspan></text>
 <text class="TextShape" transform="rotate(-44.9 13119 9375)"><tspan class="TextParagraph" font-family="Liberation Sans, sans-serif" font-size="353px" font-weight="400"><tspan class="TextPosition" x="13119" y="9375"><tspan fill="rgb(0,0,0)" stroke="none">69</tspan></tspan></tspan></text>
 <text class="TextShape" transform="rotate(-44.9 13694 9375)"><tspan class="TextParagraph" font-family="Liberation Sans, sans-serif" font-size="353px" font-weight="400"><tspan class="TextPosition" x="13694" y="9375"><tspan fill="rgb(0,0,0)" stroke="none">73</tspan></tspan></tspan></text>
 <text class="TextShape" transform="rotate(-44.9 14268 9375)"><tspan class="TextParagraph" font-family="Liberation Sans, sans-serif" font-size="353px" font-weight="400"><tspan class="TextPosition" x="14268" y="9375"><tspan fill="rgb(0,0,0)" stroke="none">77</tspan></tspan></tspan></text>
 <text class="TextShape" transform="rotate(-44.9 14842 9375)"><tspan class="TextParagraph" font-family="Liberation Sans, sans-serif" font-size="353px" font-weight="400"><tspan class="TextPosition" x="14842" y="9375"><tspan fill="rgb(0,0,0)" stroke="none">81</tspan></tspan></tspan></text>
 <text class="TextShape" transform="rotate(-44.9 15417 9375)"><tspan class="TextParagraph" font-family="Liberation Sans, sans-serif" font-size="353px" font-weight="400"><tspan class="TextPosition" x="15417" y="9375"><tspan fill="rgb(0,0,0)" stroke="none">85</tspan></tspan></tspan></text>
 <text class="TextShape"><tspan class="TextParagraph" font-family="Liberation Sans, sans-serif" font-size="353px" font-weight="400"><tspan class="TextPosition" x="3102" y="8751"><tspan fill="rgb(0,0,0)" stroke="none">0</tspan></tspan></tspan></text>
 <text class="TextShape"><tspan class="TextParagraph" font-family="Liberation Sans, sans-serif" font-size="353px" font-weight="400"><tspan class="TextPosition" x="1356" y="7868"><tspan fill="rgb(0,0,0)" stroke="none">1000000000</tspan></tspan></tspan></text>
 <text class="TextShape"><tspan class="TextParagraph" font-family="Liberation Sans, sans-serif" font-size="353px" font-weight="400"><tspan class="TextPosition" x="1356" y="6985"><tspan fill="rgb(0,0,0)" stroke="none">2000000000</tspan></tspan></tspan></text>
 <text class="TextShape"><tspan class="TextParagraph" font-family="Liberation Sans, sans-serif" font-size="353px" font-weight="400"><tspan class="TextPosition" x="1356" y="6102"><tspan fill="rgb(0,0,0)" stroke="none">3000000000</tspan></tspan></tspan></text>
 <text class="TextShape"><tspan class="TextParagraph" font-family="Liberation Sans, sans-serif" font-size="353px" font-weight="400"><tspan class="TextPosition" x="1356" y="5219"><tspan fill="rgb(0,0,0)" stroke="none">4000000000</tspan></tspan></tspan></text>
 <text class="TextShape"><tspan class="TextParagraph" font-family="Liberation Sans, sans-serif" font-size="353px" font-weight="400"><tspan class="TextPosition" x="1356" y="4336"><tspan fill="rgb(0,0,0)" stroke="none">5000000000</tspan></tspan></tspan></text>
 <text class="TextShape"><tspan class="TextParagraph" font-family="Liberation Sans, sans-serif" font-size="353px" font-weight="400"><tspan class="TextPosition" x="1356" y="3453"><tspan fill="rgb(0,0,0)" stroke="none">6000000000</tspan></tspan></tspan></text>
 <text class="TextShape"><tspan class="TextParagraph" font-family="Liberation Sans, sans-serif" font-size="353px" font-weight="400"><tspan class="TextPosition" x="1356" y="2570"><tspan fill="rgb(0,0,0)" stroke="none">7000000000</tspan></tspan></tspan></text>
 <text class="TextShape"><tspan class="TextParagraph" font-family="Liberation Sans, sans-serif" font-size="459px" font-weight="400"><tspan class="TextPosition" x="7675" y="909"><tspan fill="rgb(0,0,0)" stroke="none">Training Loss</tspan></tspan></tspan></text>
 <text class="TextShape"><tspan class="TextParagraph" font-family="Liberation Sans, sans-serif" font-size="388px" font-weight="400"><tspan class="TextPosition" x="6890" y="1835"><tspan fill="rgb(0,0,0)" stroke="none">Rubix ML Gradient Boost</tspan></tspan></tspan></text>
 <path fill="none" stroke="rgb(255,56,56)" stroke-width="80" stroke-linejoin="round" d="M 16221,5300 L 17021,5300"/>
 <text class="TextShape"><tspan class="TextParagraph" font-family="Liberation Sans, sans-serif" font-size="353px" font-weight="400"><tspan class="TextPosition" x="17121" y="5423"><tspan fill="rgb(0,0,0)" stroke="none">loss</tspan></tspan></tspan></text>
 <text class="TextShape"><tspan class="TextParagraph" font-family="Liberation Sans, sans-serif" font-size="318px" font-weight="400"><tspan class="TextPosition" x="8100" y="10017"><tspan fill="rgb(0,0,0)" stroke="none">Epoch</tspan></tspan></tspan></text>
 <text class="TextShape" transform="rotate(-90 828 6394)"><tspan class="TextParagraph" font-family="Liberation Sans, sans-serif" font-size="318px" font-weight="400"><tspan class="TextPosition" x="828" y="6394"><tspan fill="rgb(0,0,0)" stroke="none">L2 Loss</tspan></tspan></tspan></text>
</svg>